<svg xmlns="http://www.w3.org/2000/svg" viewBox="0 0 1254 1254" role="img" aria-label="PlatformClaw pixel crab">
  <path fill="#0F7C72" fill-rule="evenodd" d="M307 282v57l-57 2v170h56l1 60 53 2v105l-52 2v103l52 1v57l-52 1v127h52v-57l44-1 1-40h43l1 41h66l2-59h221l2 59h66l1-41h43l2 41 43-1v58l52 1V842l-52-1v-57l52-1V679l-52-1V573l53-2 1-60h55V340l-57-1v-57h-87l-2 130-52-1-1-71-66 1v169l53 2v60h43v40H420v-40h43v-60l52-1 1-170-66-1-1 71-53 1V283l-89-1Zm394 391 38 1-1 73-38-1 1-73Zm-184 0 38 1-1 73-38-1 1-73Z"/>
</svg>
